name C:\Users\Nicos\Desktop\Gil_twoSteps\Study2\ExperimentalData\IK_Splined\twoSteps_IK_BSplines_140_meshInts_study2_p02_s_01_lowIK_modROI.mot
datacolumns 38
datarows 15
range 0.54600000 0.55735141
endheader
                time	         pelvis_tilt	         pelvis_list	     pelvis_rotation	           pelvis_tx	           pelvis_ty	           pelvis_tz	       hip_flexion_r	     hip_adduction_r	      hip_rotation_r	        knee_angle_r	       ankle_angle_r	    subtalar_angle_r	         mtp_angle_r	       hip_flexion_l	     hip_adduction_l	      hip_rotation_l	        knee_angle_l	       ankle_angle_l	    subtalar_angle_l	         mtp_angle_l	    lumbar_extension	      lumbar_bending	     lumbar_rotation	          arm_flex_r	           arm_add_r	           arm_rot_r	        elbow_flex_r	           pro_sup_r	        wrist_flex_r	         wrist_dev_r	          arm_flex_l	           arm_add_l	           arm_rot_l	        elbow_flex_l	           pro_sup_l	        wrist_flex_l	         wrist_dev_l	
          0.54600000	        -23.03505066	         12.59692078	         -7.18972491	         -0.28945021	          0.87242885	          0.35077905	        -11.56970563	        -16.63069373	          0.60298729	        -25.40315547	        -42.86873505	        -15.78916564	         -5.86844418	         88.26426214	          0.78541967	        -11.20102783	        -86.12950987	          6.55763821	        -14.41553913	          7.20193046	        -14.97954584	        -23.77647627	         -7.01515940	         55.89374018	        -12.95126091	         24.70124563	        141.31817582	         60.41803152	        -18.61242446	         10.24896413	        -76.17517450	          4.62520736	        -44.93537750	         52.75354639	         63.40270588	          1.35569974	         25.46704672	
          0.54648287	        -23.02317186	         12.51044518	         -7.09151507	         -0.28675607	          0.87275909	          0.35083817	        -11.52756836	        -16.47709993	          0.48069255	        -25.70601200	        -42.84941181	        -15.87075499	         -5.93771990	         88.11960484	          0.80671822	        -11.15908232	        -85.91796089	          6.56208836	        -14.39757760	          7.19713244	        -15.05647643	        -23.73012090	         -7.08221380	         55.48601238	        -13.09078820	         24.65257793	        141.44798635	         60.38217307	        -18.63674018	         10.25805920	        -75.99281020	          4.61499767	        -44.94940250	         52.79604746	         63.39531795	          1.36470159	         25.46017614	
          0.54800856	        -22.97743973	         12.23595067	         -6.78244839	         -0.27824216	          0.87380799	          0.35103064	        -11.38761520	        -15.99097420	          0.09873464	        -26.68490016	        -42.76076603	        -16.10447510	         -6.11401716	         87.64556286	          0.87507585	        -11.02638980	        -85.25434309	          6.57238374	        -14.33617030	          7.18529540	        -15.31417941	        -23.58201092	         -7.28487995	         54.17277767	        -13.53311287	         24.47057874	        141.84260939	         60.26954781	        -18.71459677	         10.28870892	        -75.40546934	          4.56472370	        -44.98378010	         52.94243083	         63.38155615	          1.39200297	         25.43737243	
          0.54911429	        -22.92819062	         12.03452396	         -6.56088206	         -0.27206880	          0.87457891	          0.35118127	        -11.27279688	        -15.63702299	         -0.16936015	        -27.43752374	        -42.64232854	        -16.22659050	         -6.15814818	         87.26864643	          0.92670528	        -10.92990374	        -84.78279841	          6.57245014	        -14.28252077	          7.18324254	        -15.52968937	        -23.47143630	         -7.41369532	         53.17195360	        -13.85658316	         24.28323301	        142.09811841	         60.18924465	        -18.77304358	         10.31467934	        -74.95790977	          4.49290493	        -44.98918111	         53.07228098	         63.39039983	          1.40954895	         25.41869398	
          0.54911429	        -22.92819062	         12.03452396	         -6.56088206	         -0.27206880	          0.87457891	          0.35118127	        -11.27279688	        -15.63702299	         -0.16936015	        -27.43752374	        -42.64232854	        -16.22659050	         -6.15814818	         87.26864643	          0.92670528	        -10.92990374	        -84.78279841	          6.57245014	        -14.28252077	          7.18324254	        -15.52968937	        -23.47143630	         -7.41369532	         53.17195360	        -13.85658316	         24.28323301	        142.09811841	         60.18924465	        -18.77304358	         10.31467934	        -74.95790977	          4.49290493	        -44.98918111	         53.07228098	         63.39039983	          1.40954895	         25.41869398	
          0.54959716	        -22.90668350	         11.94656078	         -6.46412389	         -0.26937289	          0.87491557	          0.35124705	        -11.22265564	        -15.48245225	         -0.28643732	        -27.76619497	        -42.59060681	        -16.27991838	         -6.17742022	         87.10404677	          0.94925189	        -10.88776821	        -84.57687452	          6.57247913	        -14.25909199	          7.18234606	        -15.62380272	        -23.42314829	         -7.46994907	         52.73489304	        -13.99784285	         24.20141901	        142.20969937	         60.15417620	        -18.79856734	         10.32602063	        -74.76246020	          4.46154163	        -44.99153973	         53.12898663	         63.39426188	          1.41721129	         25.41053709	
          0.55112284	        -22.83278929	         11.66917588	         -6.15979032	         -0.26085257	          0.87598369	          0.35145822	        -11.05917124	        -14.99604971	         -0.65340312	        -28.81866798	        -42.41500211	        -16.43069004	         -6.21523911	         86.57139591	          1.02112548	        -10.75533420	        -83.93014737	          6.56965818	        -14.18320904	          7.18173625	        -15.93184619	        -23.27011880	         -7.63872659	         51.33336274	        -14.44292558	         23.91620854	        142.54934207	         60.04315922	        -18.88175889	         10.36422341	        -74.13587588	          4.34680472	        -44.98922002	         53.31762548	         63.41354941	          1.44119022	         25.38390091	
          0.55222857	        -22.76368923	         11.46956318	         -5.94284461	         -0.25467139	          0.87676935	          0.35161995	        -10.92744906	        -14.64870787	         -0.91163911	        -29.61809482	        -42.25584633	        -16.49358271	         -6.18226887	         86.15243126	          1.07487855	        -10.66117749	        -83.47166273	          6.55999186	        -14.12335225	          7.18711087	        -16.18305725	        -23.15801006	         -7.73759622	         50.26370980	        -14.76225140	         23.63960232	        142.76171860	         59.96213758	        -18.94871647	         10.39810981	        -73.65809639	          4.22271717	        -44.96196652	         53.47912813	         63.44606879	          1.45796449	         25.36233619	
          0.55222857	        -22.76368923	         11.46956318	         -5.94284461	         -0.25467139	          0.87676935	          0.35161995	        -10.92744906	        -14.64870787	         -0.91163911	        -29.61809482	        -42.25584633	        -16.49358271	         -6.18226887	         86.15243126	          1.07487855	        -10.66117749	        -83.47166273	          6.55999186	        -14.12335225	          7.18711087	        -16.18305725	        -23.15801006	         -7.73759622	         50.26370980	        -14.76225140	         23.63960232	        142.76171860	         59.96213758	        -18.94871647	         10.39810981	        -73.65809639	          4.22271717	        -44.96196652	         53.47912813	         63.44606879	          1.45796449	         25.36233619	
          0.55271144	        -22.73351318	         11.38239218	         -5.84810427	         -0.25197207	          0.87711245	          0.35169057	        -10.86992589	        -14.49702345	         -1.02441095	        -29.96720507	        -42.18634289	        -16.52104799	         -6.16787074	         85.96946911	          1.09835256	        -10.62005919	        -83.27144217	          6.55577057	        -14.09721275	          7.18945797	        -16.29276130	        -23.10905210	         -7.78077266	         49.79659163	        -14.90170121	         23.51880819	        142.85446357	         59.92675538	        -18.97795689	         10.41290802	        -73.44944976	          4.16852805	        -44.95006490	         53.54965644	         63.46027002	          1.46528982	         25.35291886	
          0.55423713	        -22.63432978	         11.10853439	         -5.55001294	         -0.24344091	          0.87819937	          0.35191520	        -10.68444161	        -14.02119501	         -1.37907974	        -31.07843157	        -41.96431169	        -16.59618942	         -6.11241738	         85.38284410	          1.17291303	        -10.49127790	        -82.64177341	          6.54023399	        -14.01465543	          7.19820260	        -16.64643350	        -22.95462761	         -7.90945457	         48.30492295	        -15.33949713	         23.11459697	        143.13702136	         59.81443442	        -19.07338624	         10.46200913	        -72.78334694	          3.98477857	        -44.90356562	         53.77919989	         63.51004708	          1.48871267	         25.32255285	
          0.55534286	        -22.54828551	         10.91583723	         -5.33858142	         -0.23724915	          0.87899775	          0.35208341	        -10.53623799	        -13.68900117	         -1.63005961	        -31.91396128	        -41.79443750	        -16.60772274	         -6.03548640	         84.92619361	          1.22839693	        -10.40213351	        -82.19629220	          6.52086288	        -13.95494354	          7.20944130	        -16.92876752	        -22.84367815	         -7.97417469	         47.16569152	        -15.64642826	         22.73846785	        143.30315407	         59.73108420	        -19.15376686	         10.50624363	        -72.27527233	          3.80537578	        -44.83705648	         53.97028331	         63.56422192	          1.50671283	         25.29829118	
          0.55534286	        -22.54828551	         10.91583723	         -5.33858142	         -0.23724915	          0.87899775	          0.35208341	        -10.53623799	        -13.68900117	         -1.63005961	        -31.91396128	        -41.79443750	        -16.60772274	         -6.03548640	         84.92619361	          1.22839693	        -10.40213351	        -82.19629220	          6.52086288	        -13.95494354	          7.20944130	        -16.92876752	        -22.84367815	         -7.97417469	         47.16569152	        -15.64642826	         22.73846785	        143.30315407	         59.73108420	        -19.15376686	         10.50624363	        -72.27527233	          3.80537578	        -44.83705648	         53.97028331	         63.56422192	          1.50671283	         25.29829118	
          0.55582573	        -22.51070992	         10.83168625	         -5.24624913	         -0.23454521	          0.87934641	          0.35215687	        -10.47151737	        -13.54393188	         -1.73966270	        -32.27883768	        -41.72025333	        -16.61275935	         -6.00189059	         84.72677403	          1.25262678	        -10.36320409	        -82.00175025	          6.51240350	        -13.92886732	          7.21434925	        -17.05206299	        -22.79522644	         -8.00243802	         46.66818838	        -15.78046529	         22.57421201	        143.37570434	         59.69468509	        -19.18886913	         10.52556087	        -72.05339580	          3.72703045	        -44.80801189	         54.05372958	         63.58788011	          1.51457351	         25.28769610	
          0.55735141	        -22.39016522	         10.56756122	         -4.95532918	         -0.22600035	          0.88044859	          0.35238909	        -10.26403853	        -13.08902211	         -2.08541511	        -33.43648445	        -41.48680227	        -16.62316459	         -5.89183987	         84.09192326	          1.32953582	        -10.24131617	        -81.38896607	          6.48397021	        -13.84745113	          7.23049085	        -17.44525036	        -22.64261341	         -8.08634940	         45.08597659	        -16.20075150	         22.04004016	        143.59639552	         59.57958090	        -19.30214158	         10.58836975	        -71.34777342	          3.47093358	        -44.70889498	         54.32098060	         63.66565904	          1.53974574	         25.25390777	
